<svg xmlns="http://www.w3.org/2000/svg" width="32" height="32" fill="#000" fill-rule="evenodd" stroke-linejoin="round" stroke-miterlimit="2" clip-rule="evenodd" id="cpu"><path d="M22 6h-1V4a1 1 0 0 0-2 0v2h-1V4a1 1 0 0 0-2 0v2h-1V4a1 1 0 0 0-2 0v2h-1V4a1 1 0 0 0-2 0v2H9V4a1 1 0 0 0-2 0v2.268A1.984 1.984 0 0 0 6.268 7H4a1 1 0 0 0 0 2h2v1H4a1 1 0 0 0 0 2h2v1H4a1 1 0 0 0 0 2h2v1H4a1 1 0 0 0 0 2h2v1H4a1 1 0 0 0 0 2h2v1H4a1 1 0 0 0 0 2h2a2 2 0 0 0 1 1.732V28a1 1 0 0 0 2 0v-2h1v2a1 1 0 0 0 2 0v-2h1v2a1 1 0 0 0 2 0v-2h1v2a1 1 0 0 0 2 0v-2h1v2a1 1 0 0 0 2 0v-2h1v2a1 1 0 0 0 2 0v-2a2 2 0 0 0 1.936-1.5H28a1 1 0 0 0 0-2h-2v-1h2a1 1 0 0 0 0-2h-2v-1h2a1 1 0 0 0 0-2h-2v-1h2a1 1 0 0 0 0-2h-2v-1h2a1 1 0 0 0 0-2h-2v-1h2a1 1 0 0 0 0-2h-2.064A2 2 0 0 0 24 6V4a1 1 0 0 0-2 0v2Zm2 2H8v16h16V8Z"></path><path d="M22 20v-8a2 2 0 0 0-2-2h-8a2 2 0 0 0-2 2v8a2 2 0 0 0 2 2h8a2 2 0 0 0 2-2Zm-2 0h-8v-8h8v8Z"></path></svg>