<svg width="32px" height="32px" viewBox="0 0 24 24" id="Layer_1" data-name="Layer 1" xmlns="http://www.w3.org/2000/svg" fill="#000000"><g id="SVGRepo_bgCarrier" stroke-width="0"></g><g id="SVGRepo_tracerCarrier" stroke-linecap="round" stroke-linejoin="round"></g><g id="SVGRepo_iconCarrier"><defs><style>.cls-1{fill:none;stroke:#707070;stroke-miterlimit:10;stroke-width:1.91px;}</style></defs><path class="cls-1" d="M22.5,19.64h0a2.86,2.86,0,0,1-2.86,2.86H4.36A2.86,2.86,0,0,1,1.5,19.64h0a1.9,1.9,0,0,1,1.91-1.91H9.14l.95.95h3.82l.95-.95h5.73A1.9,1.9,0,0,1,22.5,19.64Z"></path><path class="cls-1" d="M17.73,5.32h.95a1.92,1.92,0,0,1,1.91,1.91v10.5"></path><path class="cls-1" d="M3.41,17.73V7.23A1.92,1.92,0,0,1,5.32,5.32h.95"></path><rect class="cls-1" x="10.09" y="1.5" width="3.82" height="7.64" rx="1.91"></rect><line class="cls-1" x1="8.18" y1="1.5" x2="10.09" y2="2.45"></line><line class="cls-1" x1="15.82" y1="1.5" x2="13.91" y2="2.45"></line><line class="cls-1" x1="8.18" y1="9.14" x2="10.09" y2="8.18"></line><line class="cls-1" x1="15.82" y1="9.14" x2="13.91" y2="8.18"></line><line class="cls-1" x1="16.77" y1="5.32" x2="13.91" y2="5.32"></line><line class="cls-1" x1="7.23" y1="5.32" x2="10.09" y2="5.32"></line></g></svg>