<svg version="1.1" id="Icons" xmlns="http://www.w3.org/2000/svg" xmlns:xlink="http://www.w3.org/1999/xlink" viewBox="0 0 32 32" xml:space="preserve" width="32px" height="32px" fill="" stroke=""><g id="SVGRepo_bgCarrier" stroke-width="0"></g><g id="SVGRepo_tracerCarrier" stroke-linecap="round" stroke-linejoin="round"></g><g id="SVGRepo_iconCarrier"> <style type="text/css"> .st0{fill:none;stroke:#707070;stroke-width:2;stroke-linecap:round;stroke-linejoin:round;stroke-miterlimit:10;} .st1{fill:none;stroke:#707070;stroke-width:2;stroke-linejoin:round;stroke-miterlimit:10;} </style> <path class="st0" d="M27,29H5c-1.1,0-2-0.9-2-2V5c0-1.1,0.9-2,2-2h22c1.1,0,2,0.9,2,2v22C29,28.1,28.1,29,27,29z"></path> <circle class="st0" cx="16" cy="16" r="10"></circle> <circle class="st0" cx="16" cy="16" r="3"></circle> <path class="st0" d="M14.5,13.4L14.5,13.4c0.6-2.4-0.6-4.8-2.8-5.8L11,7.3"></path> <path class="st0" d="M13,16L13,16c-1.7-1.7-4.4-1.9-6.4-0.5L6,16"></path> <path class="st0" d="M14.5,18.6L14.5,18.6c-2.4,0.6-3.9,2.9-3.6,5.3l0.1,0.8"></path> <path class="st0" d="M17.5,18.6L17.5,18.6c-0.6,2.4,0.6,4.8,2.8,5.8l0.7,0.3"></path> <path class="st0" d="M19,16L19,16c1.7,1.7,4.4,1.9,6.4,0.5L26,16"></path> <path class="st0" d="M17.5,13.4L17.5,13.4c2.4-0.6,3.9-2.9,3.6-5.3L21,7.3"></path> <line class="st0" x1="6" y1="6" x2="7" y2="6"></line> <line class="st0" x1="25" y1="6" x2="26" y2="6"></line> <line class="st0" x1="6" y1="26" x2="7" y2="26"></line> <line class="st0" x1="25" y1="26" x2="26" y2="26"></line> </g></svg>