<svg width="36px" height="36px" viewBox="-102.4 -102.4 1228.80 1228.80" class="icon" version="1.1" xmlns="http://www.w3.org/2000/svg" fill="#000000"><g id="SVGRepo_bgCarrier" stroke-width="0">
<rect x="-102.4" y="-102.4" width="1228.80" height="1228.80" rx="245.76" fill="#26547C" strokewidth="0"></rect></g>
<g id="SVGRepo_tracerCarrier" stroke-linecap="round" stroke-linejoin="round"></g><g id="SVGRepo_iconCarrier">
<path d="M291 694.9H182.9v-512h658.3v401.3h73.1V109.7H109.7V768H291zM219.4" fill="#ffffff"></path>
<path d="M754.2 597.3c32-90.2 12.2-194.6-59.9-266.8-49.9-49.9-115.3-74.8-180.6-74.8-54 0-108.1 17-153.5 51l153.1 153.1-51.7 51.7-153.2-153.1c-75.1 100.3-67.4 243 23.8 334.1 49.9 49.9 115.2 74.8 180.6 74.8 29.2 0 58.4-4.9 86.2-14.8l172.8 172.8L927 770.1 754.2 597.3zM650.7 700.8L618 668.1l-43.5 15.5c-19.8 7-40.6 10.6-61.7 10.6-48.7 0-94.5-18.9-128.9-53.3-41.5-41.5-59.1-99.5-51.4-154.8l77.3 77.2 51.7 51.7 51.7-51.7 51.7-51.7 51.7-51.7-51.6-51.8-77.4-77.4c8.6-1.2 17.3-1.8 26.1-1.8 48.7 0 94.5 19 128.9 53.4 49.5 49.5 66.3 124.3 42.7 190.6l-15.5 43.5 32.7 32.7 121.1 121.1-51.7 51.7-121.2-121.1z" fill="#ffffff">
</path></g></svg>