<svg width="32px" height="32px" viewBox="0 0 24 24" fill="none" xmlns="http://www.w3.org/2000/svg"><g id="SVGRepo_bgCarrier" stroke-width="0"></g><g id="SVGRepo_tracerCarrier" stroke-linecap="round" stroke-linejoin="round"></g><g id="SVGRepo_iconCarrier"> <path d="M12 19V17M12 19C9.23858 19 7 16.7614 7 14M12 19C13.8953 19 15.5443 17.9455 16.3922 16.3912M7 14V11C7 9.89543 7.89543 9 9 9M7 14H4M17 11.3984V11C17 9.89543 16.1046 9 15 9H14.5977M4.5 20.5L8 17M7 10L4.5 7.5M19.5977 14H20M3 3L21 21M10.0705 4.47165C10.3023 3.62346 11.0783 3 12 3C13.1046 3 14 3.89543 14 5V6H11.5979M17 10L19.5 7.5" stroke="#ffffff" stroke-width="2" stroke-linecap="round" stroke-linejoin="round"></path> </g></svg>