<svg fill="#ffffff" width="32px" height="32px" viewBox="-1.5 0 32 32" version="1.1" xmlns="http://www.w3.org/2000/svg" stroke="#ffffff"><g id="SVGRepo_bgCarrier" stroke-width="0"></g><g id="SVGRepo_tracerCarrier" stroke-linecap="round" stroke-linejoin="round"></g><g id="SVGRepo_iconCarrier"> <title>bicycle</title> <path d="M17.906 12.219l1.75 1.875c1-0.625 2.125-1.031 3.375-1.031 3.156 0 5.781 2.594 5.781 5.781 0 3.156-2.625 5.75-5.781 5.75-2.844 0-5.219-2.031-5.688-4.781l-2.625 0.156c-0.219 0-0.375-0.125-0.531-0.25l-5.313-6.594-0.313 0.656c1.75 1 3 2.875 3 5.063 0 3.156-2.625 5.75-5.813 5.75-3.156 0-5.75-2.594-5.75-5.75 0-3.188 2.594-5.781 5.75-5.781 0.5 0 0.969 0.063 1.438 0.156l1.313-3.438-3.594-0.969c-0.344-0.094-0.594-0.469-0.5-0.813 0.125-0.375 0.5-0.625 0.875-0.531l4.313 1.219c0.188 0.031 0.406 0.188 0.469 0.375 0.063 0.125 0.094 0.344 0.031 0.531l-0.313 0.719 6.906 1.313 0.906-2.719-1.25 0.094h-0.031c-0.375 0-0.688-0.375-0.688-0.719s0.281-0.688 0.688-0.719l4.063-0.188c0.375 0 0.719 0.313 0.719 0.688 0.031 0.406-0.313 0.688-0.656 0.719l-1.375 0.063zM14.469 17.813l1.719-4.906-6.719-1.219zM15.719 18.531l1.563-0.094c0.063-1.281 0.563-2.438 1.375-3.375l-1.281-1.375zM5.188 18.563l1.5-4c-0.281-0.063-0.625-0.094-0.938-0.094-2.406 0-4.344 1.938-4.344 4.375 0 2.406 1.938 4.344 4.344 4.344s4.406-1.938 4.406-4.344c0-1.594-0.844-3-2.094-3.75l-1.563 3.969c-0.156 0.344-0.563 0.5-0.938 0.375-0.344-0.156-0.5-0.531-0.375-0.875zM23.031 19.5l-4.281 0.25c0.438 1.969 2.156 3.438 4.281 3.438 2.406 0 4.375-1.938 4.375-4.344 0-2.438-1.969-4.375-4.375-4.375-0.906 0-1.719 0.219-2.406 0.688l2.906 3.219c0.156 0.219 0.25 0.5 0.125 0.719-0.094 0.25-0.344 0.406-0.625 0.406zM18.688 18.375l2.844-0.156-1.938-2.125c-0.5 0.688-0.844 1.406-0.906 2.281z"></path> </g></svg>