<svg height="32px" width="32px" version="1.1" id="_x32_" xmlns="http://www.w3.org/2000/svg" xmlns:xlink="http://www.w3.org/1999/xlink" viewBox="0 0 512 512" xml:space="preserve" fill="#000000" stroke="#000000" stroke-width="0.00512"><g id="SVGRepo_bgCarrier" stroke-width="0"></g><g id="SVGRepo_tracerCarrier" stroke-linecap="round" stroke-linejoin="round"></g><g id="SVGRepo_iconCarrier"> <style type="text/css"> .st0{fill:#ffffff;} </style> <g> <path class="st0" d="M229.324,241.705c0.908,0.538,2.02,1.182,3.236,1.967c7.257-5.027,16.041-7.936,25.512-7.936 c5.908,0,11.57,1.146,16.729,3.227c5.185-21.835,16.005-60.072,25.388-92.956c9.735-34.004-23.043-74.63-65.628-52.425 c-27.575,13.934-46.464,42.496-46.464,75.486C188.098,199.95,204.624,226.935,229.324,241.705z"></path> <path class="st0" d="M213.477,287.2c-21.508,6.438-60.027,16.191-93.22,24.48c-34.294,8.59-53.096,57.285-12.584,83.07 c25.865,16.914,60.072,18.996,88.626,2.496c26.746-15.44,41.844-43.246,42.294-72.02c0-1.031,0-2.345,0.08-3.774 C225.356,315.066,215.647,302.332,213.477,287.2z"></path> <path class="st0" d="M389.794,276.053c-26.728-15.432-58.378-14.621-83.493-0.617c-0.926,0.511-2.036,1.146-3.324,1.834 c0.106,1.146,0.141,2.328,0.141,3.527c0,14.339-6.728,27.144-17.222,35.415c16.332,15.362,44.048,43.881,67.84,68.466 c24.586,25.406,76.156,17.355,78.211-30.636C433.658,323.215,418.366,292.553,389.794,276.053z"></path> <path class="st0" d="M258.055,245.612c-19.418,0-35.168,15.75-35.168,35.186c0,19.427,15.75,35.177,35.168,35.177 c19.445,0,35.186-15.75,35.186-35.177C293.241,261.362,277.5,245.612,258.055,245.612z M258.055,295.612 c-8.166,0-14.806-6.631-14.806-14.815c0-8.183,6.64-14.815,14.806-14.815c8.201,0,14.824,6.632,14.824,14.815 C272.879,288.982,266.256,295.612,258.055,295.612z"></path> <path class="st0" d="M412.378,0H99.622C44.692,0,0,44.692,0,99.631v312.747C0,467.308,44.692,512,99.622,512h312.756 c54.93,0,99.622-44.692,99.622-99.622V99.631C512,44.692,467.308,0,412.378,0z M467.891,412.378 c0,30.608-24.903,55.504-55.513,55.504H99.622c-30.608,0-55.512-24.895-55.512-55.504V99.631c0-30.618,24.903-55.521,55.512-55.521 h312.756c30.61,0,55.513,24.903,55.513,55.521V412.378z"></path> </g> </g></svg>