<svg width="32px" height="32px" viewBox="0 0 24 24" fill="none" xmlns="http://www.w3.org/2000/svg" transform="matrix(-1, 0, 0, 1, 0, 0)"><g id="SVGRepo_bgCarrier" stroke-width="0"></g><g id="SVGRepo_tracerCarrier" stroke-linecap="round" stroke-linejoin="round"></g><g id="SVGRepo_iconCarrier"> <path fill-rule="evenodd" clip-rule="evenodd" d="M3.5362 5.29854C3.861 5.23721 4.19511 5.34035 4.42884 5.57407L6.90007 8.0453C7.21718 8.36241 7.73131 8.36241 8.04842 8.0453C8.36553 7.7282 8.36553 7.21406 8.04842 6.89695L5.57841 4.42694C5.34457 4.1931 5.24146 3.85877 5.30297 3.53383C5.36449 3.2089 5.58266 2.93539 5.8858 2.8032C8.06696 1.85206 10.7034 2.26698 12.4903 4.05384C13.9041 5.46765 14.4588 7.41411 14.1581 9.24419L21.0366 16.1227C22.3936 17.4796 22.3936 19.6797 21.0366 21.0367C19.6796 22.3936 17.4796 22.3936 16.1226 21.0367L9.24405 14.1581C7.41401 14.4588 5.46762 13.904 4.05384 12.4903C2.26556 10.702 1.85139 8.06276 2.80548 5.88058C2.93789 5.57772 3.2114 5.35986 3.5362 5.29854ZM4.30644 8.2801C4.30858 9.29283 4.69632 10.3043 5.46805 11.076C6.50688 12.1149 7.97927 12.4581 9.30695 12.1009C9.6523 12.008 10.021 12.1066 10.2739 12.3595L17.5368 19.6225C18.1127 20.1984 19.0465 20.1984 19.6224 19.6225C20.1983 19.0466 20.1983 18.1128 19.6224 17.5369L12.3595 10.274C12.1066 10.0211 12.008 9.65241 12.1009 9.30705C12.4582 7.97934 12.1149 6.50691 11.076 5.46805C10.3059 4.69791 9.29699 4.31018 8.28635 4.30645L9.46264 5.48274C10.5608 6.58089 10.5608 8.36136 9.46264 9.45952C8.36448 10.5577 6.58401 10.5577 5.48586 9.45952L4.30644 8.2801Z" fill="#ffffff"></path> </g></svg>