<svg xmlns="http://www.w3.org/2000/svg" width="32" height="32" fill-rule="evenodd" stroke-linejoin="round" stroke-miterlimit="2" clip-rule="evenodd" id="ram"><path d="M14 23a1 1 0 0 0 1-1c0-.409.154-.708.407-.871.597-.387 1.593-.094 1.593.871a1 1 0 0 0 1 1h11a1 1 0 0 0 1-1v-2a1 1 0 0 0-1-1c-.667 0-.667-1 0-1a1 1 0 0 0 1-1v-1a1 1 0 0 0-1-1c-.667 0-.667-1 0-1a1 1 0 0 0 1-1v-2a1 1 0 0 0-1-1H3a1 1 0 0 0-1 1v2a1 1 0 0 0 1 1c.667 0 .667 1 0 1a1 1 0 0 0-1 1v1a1 1 0 0 0 1 1c.667 0 .667 1 0 1a1 1 0 0 0-1 1v2a1 1 0 0 0 1 1h11Zm13.426-6.5c-1.403 1.088-1.212 3.632.574 4.324V21h-9.138c-.599-2.019-3.013-2.538-4.541-1.551A2.804 2.804 0 0 0 13.143 21H4v-.176c1.785-.692 1.977-3.235.574-4.324 1.403-1.088 1.212-3.632-.574-4.324V12h24v.176c-1.785.692-1.977 3.235-.574 4.324Z"></path><path d="M10 14a1 1 0 0 0-1-1H7a1 1 0 0 0-1 1v2.5a1 1 0 0 0 1 1h2a1 1 0 0 0 1-1V14zm5 0a1 1 0 0 0-1-1h-2a1 1 0 0 0-1 1v2.5a1 1 0 0 0 1 1h2a1 1 0 0 0 1-1V14zm6 0a1 1 0 0 0-1-1h-2a1 1 0 0 0-1 1v2.5a1 1 0 0 0 1 1h2a1 1 0 0 0 1-1V14zm5 0a1 1 0 0 0-1-1h-2a1 1 0 0 0-1 1v2.5a1 1 0 0 0 1 1h2a1 1 0 0 0 1-1V14z"></path></svg>