<svg height="32px" width="32px" version="1.1" id="Layer_1" xmlns="http://www.w3.org/2000/svg" xmlns:xlink="http://www.w3.org/1999/xlink" viewBox="0 0 473.935 473.935" xml:space="preserve" fill="#000000"><g id="SVGRepo_bgCarrier" stroke-width="0"></g><g id="SVGRepo_tracerCarrier" stroke-linecap="round" stroke-linejoin="round"></g><g id="SVGRepo_iconCarrier"> <circle style="fill:#FFC200;" cx="236.967" cy="236.967" r="236.967"></circle> <g> <path style="fill:#3D4040;" d="M368.495,105.133c-17.414-17.422-37.148,11.364-48.045,22.267 c-10.443,10.443-20.872,20.875-31.308,31.308c-0.988-10.911-2.024-21.822-3.626-32.628c-2.559-17.164-23.824-23.581-31.667-8.453 c-0.812,1.07-1.328,2.417-1.542,3.992c-0.352,1.474-0.352,2.81-0.075,4.007c0.284,14.151,0.554,28.307,0.849,42.466 c0.269,13.788-1.579,28.778,3.465,41.732c0.198,0.733,0.46,1.482,0.827,2.234c1.022,2.039,4.378,8.629,0.116,0.105 c1.212,2.425,3.435,3.824,5.905,4.34c11.921,4.524,25.156,3.027,37.923,3.285c15.865,0.314,31.719,0.621,47.584,0.947 c18.316,0.367,18.971-23.177,5.583-31.016c-6.679-3.936-17.429-3.469-24.857-4.224c-4.778-0.498-9.56-0.95-14.339-1.418 c10.368-10.372,20.741-20.73,31.109-31.105C357.292,142.098,385.861,122.484,368.495,105.133z"></path> <path style="fill:#3D4040;" d="M219.433,124.549c0.374-18.305-23.173-18.971-31.016-5.579c-3.918,6.687-3.465,17.426-4.239,24.864 c-0.49,4.763-0.928,9.545-1.396,14.324c-10.376-10.368-20.733-20.748-31.105-31.109c-10.889-10.885-30.496-39.457-47.861-22.08 c-17.399,17.396,11.379,37.137,22.275,48.045c10.436,10.425,20.879,20.864,31.323,31.311c-10.911,0.958-21.837,2.013-32.64,3.611 c-17.16,2.559-23.562,23.816-8.449,31.682c1.066,0.782,2.417,1.317,3.989,1.519c1.463,0.363,2.814,0.37,4.034,0.079 c14.14-0.277,28.284-0.565,42.439-0.842c13.755-0.266,28.707,1.564,41.635-3.442c0.599-0.146,1.19-0.367,1.755-0.662 c0.183-0.075,0.393-0.12,0.569-0.224c-0.03,0-0.06-0.022-0.094-0.022c0.101-0.064,0.206-0.109,0.299-0.176 c-0.644,0.872-0.505,0.962,1.833-1.373c1.497-1.497,2.279-3.173,2.586-4.868c4.311-11.794,2.851-24.868,3.113-37.478 C218.805,156.276,219.123,140.426,219.433,124.549z"></path> <path style="fill:#3D4040;" d="M105.133,356.106c0,0,0-0.022-0.015-0.022C106.555,357.517,107.894,358.86,105.133,356.106z"></path> <path style="fill:#3D4040;" d="M105.118,356.083L105.118,356.083C103.618,354.579,102.061,353.023,105.118,356.083z"></path> <path style="fill:#3D4040;" d="M103.64,369.632c17.414,17.414,37.148-11.364,48.052-22.275 c10.443-10.436,20.872-20.864,31.308-31.315c0.98,10.911,2.024,21.83,3.641,32.647c2.544,17.145,23.802,23.562,31.652,8.449 c0.812-1.081,1.325-2.432,1.534-4.004c0.367-1.463,0.367-2.814,0.075-4.019c-0.284-14.14-0.554-28.299-0.849-42.454 c-0.254-13.519,1.512-28.187-3.173-40.969c-0.292-1.703-1.081-3.39-2.586-4.905c-0.06-0.052-0.086-0.086-0.138-0.131 c-1.482-1.478-3.143-2.264-4.831-2.574c-11.824-4.318-24.883-2.859-37.496-3.121c-15.85-0.307-31.719-0.629-47.569-0.943 c-18.335-0.359-18.986,23.173-5.59,31.023c6.687,3.925,17.422,3.465,24.849,4.232c4.778,0.483,9.56,0.928,14.339,1.396 c-10.368,10.368-20.741,20.733-31.117,31.098C114.85,332.664,86.286,352.271,103.64,369.632z"></path> <path style="fill:#3D4040;" d="M252.705,350.194c-0.352,18.32,23.188,18.986,31.031,5.59c3.918-6.687,3.465-17.422,4.232-24.849 c0.483-4.778,0.928-9.56,1.396-14.331c10.368,10.376,20.741,20.733,31.109,31.105c10.874,10.889,30.488,39.465,47.861,22.084 c17.399-17.399-11.379-37.134-22.275-48.037c-10.443-10.428-20.887-20.872-31.323-31.315c10.911-0.965,21.822-2.017,32.625-3.618 c17.182-2.559,23.584-23.816,8.471-31.674c-1.074-0.797-2.417-1.317-3.996-1.527c-1.471-0.374-2.829-0.374-4.026-0.075 c-14.14,0.262-28.299,0.546-42.447,0.834c-13.527,0.269-28.202-1.497-40.991,3.188c-1.695,0.292-3.39,1.074-4.891,2.586 c-2.331,2.339-2.253,2.485-1.373,1.819c-0.052,0.109-0.101,0.221-0.168,0.322c-0.007-0.052-0.022-0.075-0.037-0.101 c-0.079,0.198-0.138,0.393-0.221,0.591c-0.284,0.543-0.498,1.104-0.651,1.673c-4.64,11.992-3.121,25.294-3.375,38.162 C253.349,318.475,253.027,334.344,252.705,350.194z"></path> </g> </g></svg>