<svg version="1.1" id="designs" xmlns="http://www.w3.org/2000/svg" xmlns:xlink="http://www.w3.org/1999/xlink" width="32px" height="32px" viewBox="0 0 32 32" xml:space="preserve" fill="#000000"><g id="SVGRepo_bgCarrier" stroke-width="0"></g><g id="SVGRepo_tracerCarrier" stroke-linecap="round" stroke-linejoin="round"></g><g id="SVGRepo_iconCarrier"> <style type="text/css"> .sketchy_een{fill:#ffffff;} </style> <path class="sketchy_een" d="M26.216,28.791c-0.002-0.102-0.003-0.204-0.007-0.309c-0.012-0.371-0.027-0.744-0.04-1.115 c-0.029-0.823-0.062-1.645-0.067-2.468c-0.006-0.813,0.015-1.627-0.002-2.44c-0.008-0.404-0.029-0.808-0.036-1.211 c-0.01-0.417-0.004-0.837,0-1.254c0.012-1.312-0.015-2.624-0.012-3.937c0.006-1.463,0.088-2.925,0.104-4.389 c0.002-0.229-0.096-0.438-0.25-0.591c-0.002-0.136-0.024-0.273-0.091-0.4c-0.117-0.225-0.31-0.421-0.479-0.612 c-0.127-0.142-0.258-0.284-0.385-0.427c-0.263-0.291-0.525-0.584-0.783-0.881c-0.523-0.604-1.012-1.236-1.527-1.848 c-1.056-1.256-2.119-2.504-3.15-3.781C19.388,3,19.286,2.87,19.184,2.74c-0.084-0.111-0.167-0.223-0.249-0.335 c-0.129-0.177-0.265-0.312-0.485-0.373c-0.07-0.019-0.141-0.028-0.213-0.028c-0.135,0-0.268,0.036-0.388,0.101 c-0.075-0.028-0.152-0.053-0.235-0.053c-0.008,0-0.016,0-0.025,0c-0.738,0.029-1.479,0.016-2.219,0.014 c-0.8-0.004-1.6-0.008-2.4-0.004c-1.619,0.01-3.239,0.01-4.858,0.015C7.824,2.078,7.535,2.08,7.247,2.086 C6.997,2.09,6.78,2.214,6.631,2.395C6.603,2.392,6.578,2.378,6.549,2.378c-0.481,0-0.917,0.41-0.902,0.904 c0.05,1.733,0.069,3.468,0.106,5.202c0.019,0.856,0.038,1.708,0.044,2.564c0.004,0.857,0.013,1.715,0.033,2.573 c0.04,1.742,0.146,3.483,0.202,5.223c0.054,1.696,0.035,3.393,0.038,5.089c0.004,0.844,0.015,1.69,0.013,2.535 c0,0.785-0.031,1.569-0.037,2.356c-0.002,0.187,0.073,0.351,0.178,0.493c0.039,0.133,0.099,0.259,0.199,0.358 c0.144,0.144,0.381,0.265,0.592,0.246c0.402-0.039,0.804-0.083,1.208-0.112c0.377-0.027,0.756-0.035,1.135-0.039 c0.839-0.007,1.677-0.036,2.517-0.027c0.792,0.01,1.583,0.039,2.375,0.039c0.794,0,1.589-0.008,2.383-0.01 c1.514-0.005,3.029-0.029,4.543,0.027c0.762,0.029,1.523,0.052,2.283,0.092c0.556,0.03,1.111,0.04,1.666,0.058 c0.018,0.006,0.03,0.02,0.048,0.025c0.136,0.037,0.277,0.024,0.413-0.01h0c0.417,0.02,0.765-0.363,0.765-0.765 C26.353,29.043,26.295,28.909,26.216,28.791z M19.295,5.305c0.554,0.631,1.085,1.279,1.619,1.925c0.498,0.6,0.973,1.217,1.458,1.831 c0.26,0.331,0.545,0.641,0.819,0.96c-0.215-0.027-0.428-0.061-0.645-0.078c-0.479-0.037-0.956-0.054-1.437-0.06 c-0.477-0.004-0.954-0.01-1.429-0.029c-0.33-0.013-0.659-0.033-0.987-0.053c0.002-0.278,0.003-0.555,0.003-0.832 c0.002-0.62-0.044-1.239-0.05-1.86c-0.008-0.833,0.013-1.665,0.04-2.497C18.889,4.844,19.091,5.074,19.295,5.305z M23.366,28.384 c-0.781-0.037-1.565-0.037-2.348-0.062c-1.598-0.05-3.194-0.035-4.793-0.044c-0.748-0.004-1.496-0.006-2.244-0.014 c-0.773-0.007-1.544-0.04-2.318-0.065c-0.798-0.027-1.598-0.033-2.396-0.033c-0.04,0-0.08,0-0.12,0c-0.47,0-0.94,0.014-1.409,0.036 c-0.005-0.151-0.007-0.303-0.011-0.453c-0.01-0.427-0.012-0.854-0.012-1.281c-0.004-0.844-0.012-1.69-0.013-2.535 c-0.002-1.696-0.01-3.393-0.056-5.089c-0.048-1.74-0.177-3.481-0.188-5.223c-0.006-0.858,0.012-1.716,0.006-2.573 c-0.004-0.854-0.01-1.71-0.013-2.564C7.448,7.621,7.424,6.759,7.43,5.895c0.007-0.737,0.02-1.473,0.02-2.21 c0.789-0.028,1.578-0.069,2.366-0.098c0.794-0.031,1.591-0.038,2.387-0.033c1.579,0.008,3.156,0.023,4.735,0.018 c0.072,0,0.144,0,0.216-0.001c-0.001,0.491,0,0.981-0.027,1.473c-0.037,0.679-0.04,1.357-0.046,2.037 c-0.002,0.289-0.008,0.577,0.002,0.867c0.01,0.315,0.023,0.631,0.029,0.948c0.006,0.333,0.008,0.666,0.015,1 c0.004,0.248-0.004,0.498,0.002,0.746c0.013,0.433,0.352,0.792,0.794,0.792c0.034,0,0.064-0.016,0.097-0.02 c0.011,0,0.02,0.006,0.031,0.007c0.915,0.021,1.831,0.029,2.746,0.029c0.832,0,1.654,0.036,2.481,0.138 c0.401,0.052,0.801,0.095,1.202,0.14c0.005,1.739,0.038,3.477,0.021,5.214c-0.008,0.84-0.013,1.681-0.023,2.521 c-0.01,0.821-0.027,1.643-0.002,2.464c0.019,0.633,0.029,1.266,0.038,1.898c0.012,0.612-0.002,1.223,0.002,1.835 c0.004,0.621,0.027,1.242,0.05,1.862c0.012,0.279,0.027,0.554,0.038,0.833c0.001,0.023,0,0.046,0.002,0.069 c-0.039,0-0.078-0.001-0.117-0.001C24.116,28.419,23.741,28.401,23.366,28.384z M11.985,14.915c0-0.429,0.358-0.798,0.789-0.798 c0.002,0,0.004,0,0.007,0c1.108,0.012,2.216,0.052,3.321,0.083c0.51,0.014,1.017,0.017,1.525,0.019c0.25,0,0.498,0.004,0.746,0 c0.206-0.004,0.412-0.009,0.615,0.006c0.217,0.017,0.404,0.077,0.562,0.233c0.148,0.148,0.231,0.352,0.231,0.562 c0,0.404-0.362,0.829-0.792,0.792c-0.204-0.017-0.41-0.009-0.615-0.015c-0.248-0.008-0.496-0.008-0.746-0.012 c-0.508-0.009-1.017-0.027-1.525-0.05c-0.539-0.025-1.077-0.05-1.617-0.05c-0.567,0-1.135,0.023-1.704,0.029 C12.346,15.717,11.985,15.345,11.985,14.915z M11.889,18.076c0-0.404,0.343-0.805,0.763-0.805c0.013,0,0.027,0,0.041,0.001 c1.119,0.069,2.239,0.086,3.362,0.067c0.542-0.01,1.083-0.016,1.625-0.016c0.454,0,0.917,0.012,1.367-0.041 c0.198-0.023,0.429,0.098,0.562,0.233c0.15,0.148,0.235,0.352,0.235,0.562c0,0.44-0.364,0.785-0.796,0.794 c-0.283,0.007-0.567,0.004-0.85,0c-0.196-0.004-0.39-0.006-0.585-0.006c-0.519,0.002-1.039,0.01-1.558,0.017 c-0.3,0.006-0.602,0.004-0.902,0.002c-0.24-0.002-0.481-0.002-0.719-0.002c-0.581,0.006-1.162,0.02-1.74-0.005 C12.255,18.859,11.889,18.526,11.889,18.076z M20.022,20.91c0,0.408-0.348,0.775-0.765,0.764c-1.117-0.029-2.235-0.044-3.354-0.033 c-1.206,0.012-2.41,0.048-3.614,0.067c-0.425,0.006-0.779-0.36-0.779-0.779c0-0.423,0.354-0.777,0.779-0.777 c0.635,0.001,1.271,0.019,1.908,0.023c0.587,0.004,1.171-0.01,1.758-0.012c0.61-0.002,1.217-0.004,1.827-0.011 c0.267-0.002,0.537,0,0.806-0.006c0.145-0.003,0.289-0.008,0.434-0.008c0.078,0,0.157,0.001,0.235,0.006 C19.674,20.167,20.022,20.475,20.022,20.91z"></path> </g></svg>